<mxfile host="app.diagrams.net" modified="2021-09-05T11:53:07.290Z" agent="5.0 (Windows NT 10.0; Win64; x64) AppleWebKit/537.36 (KHTML, like Gecko) Chrome/93.0.4577.63 Safari/537.36" etag="ODcRvK6GTM24X6XwMGir" version="15.0.6" type="github">
  <diagram id="4N3h2DGjZcdmvntHpCIm" name="Page-1">
    <mxGraphModel dx="1695" dy="1619" grid="1" gridSize="10" guides="1" tooltips="1" connect="1" arrows="1" fold="1" page="1" pageScale="1" pageWidth="827" pageHeight="1169" math="0" shadow="0">
      <root>
        <mxCell id="0" />
        <mxCell id="1" parent="0" />
        <mxCell id="rMBzDeZ3MMQe98OaV4ek-25" style="edgeStyle=orthogonalEdgeStyle;rounded=0;orthogonalLoop=1;jettySize=auto;html=1;exitX=1;exitY=0;exitDx=0;exitDy=0;entryX=0;entryY=1;entryDx=0;entryDy=0;endArrow=none;endFill=0;" edge="1" parent="1" source="rMBzDeZ3MMQe98OaV4ek-1" target="rMBzDeZ3MMQe98OaV4ek-5">
          <mxGeometry relative="1" as="geometry" />
        </mxCell>
        <mxCell id="rMBzDeZ3MMQe98OaV4ek-26" style="edgeStyle=orthogonalEdgeStyle;rounded=0;orthogonalLoop=1;jettySize=auto;html=1;exitX=1;exitY=0.25;exitDx=0;exitDy=0;entryX=0.143;entryY=0.625;entryDx=0;entryDy=0;entryPerimeter=0;endArrow=none;endFill=0;" edge="1" parent="1" source="rMBzDeZ3MMQe98OaV4ek-1" target="rMBzDeZ3MMQe98OaV4ek-6">
          <mxGeometry relative="1" as="geometry" />
        </mxCell>
        <mxCell id="rMBzDeZ3MMQe98OaV4ek-27" style="edgeStyle=orthogonalEdgeStyle;rounded=0;orthogonalLoop=1;jettySize=auto;html=1;exitX=1;exitY=0.75;exitDx=0;exitDy=0;endArrow=none;endFill=0;" edge="1" parent="1" source="rMBzDeZ3MMQe98OaV4ek-1" target="rMBzDeZ3MMQe98OaV4ek-7">
          <mxGeometry relative="1" as="geometry" />
        </mxCell>
        <mxCell id="rMBzDeZ3MMQe98OaV4ek-28" style="edgeStyle=orthogonalEdgeStyle;rounded=0;orthogonalLoop=1;jettySize=auto;html=1;exitX=1;exitY=1;exitDx=0;exitDy=0;entryX=0.314;entryY=0.05;entryDx=0;entryDy=0;entryPerimeter=0;endArrow=none;endFill=0;" edge="1" parent="1" source="rMBzDeZ3MMQe98OaV4ek-1" target="rMBzDeZ3MMQe98OaV4ek-10">
          <mxGeometry relative="1" as="geometry" />
        </mxCell>
        <mxCell id="rMBzDeZ3MMQe98OaV4ek-29" style="edgeStyle=orthogonalEdgeStyle;rounded=0;orthogonalLoop=1;jettySize=auto;html=1;exitX=0.5;exitY=1;exitDx=0;exitDy=0;entryX=0.5;entryY=0;entryDx=0;entryDy=0;endArrow=none;endFill=0;" edge="1" parent="1" source="rMBzDeZ3MMQe98OaV4ek-1" target="rMBzDeZ3MMQe98OaV4ek-9">
          <mxGeometry relative="1" as="geometry" />
        </mxCell>
        <mxCell id="rMBzDeZ3MMQe98OaV4ek-30" style="edgeStyle=orthogonalEdgeStyle;rounded=0;orthogonalLoop=1;jettySize=auto;html=1;exitX=0;exitY=1;exitDx=0;exitDy=0;entryX=1;entryY=0;entryDx=0;entryDy=0;endArrow=none;endFill=0;" edge="1" parent="1" source="rMBzDeZ3MMQe98OaV4ek-1" target="rMBzDeZ3MMQe98OaV4ek-8">
          <mxGeometry relative="1" as="geometry" />
        </mxCell>
        <mxCell id="rMBzDeZ3MMQe98OaV4ek-1" value="Aluno" style="rounded=0;whiteSpace=wrap;html=1;" vertex="1" parent="1">
          <mxGeometry x="-50" y="30" width="120" height="60" as="geometry" />
        </mxCell>
        <mxCell id="rMBzDeZ3MMQe98OaV4ek-42" style="edgeStyle=orthogonalEdgeStyle;rounded=0;orthogonalLoop=1;jettySize=auto;html=1;exitX=1;exitY=0.25;exitDx=0;exitDy=0;entryX=0.038;entryY=0.667;entryDx=0;entryDy=0;entryPerimeter=0;endArrow=none;endFill=0;" edge="1" parent="1" source="rMBzDeZ3MMQe98OaV4ek-2" target="rMBzDeZ3MMQe98OaV4ek-24">
          <mxGeometry relative="1" as="geometry" />
        </mxCell>
        <mxCell id="rMBzDeZ3MMQe98OaV4ek-43" style="edgeStyle=orthogonalEdgeStyle;rounded=0;orthogonalLoop=1;jettySize=auto;html=1;exitX=1;exitY=0.75;exitDx=0;exitDy=0;endArrow=none;endFill=0;" edge="1" parent="1" source="rMBzDeZ3MMQe98OaV4ek-2" target="rMBzDeZ3MMQe98OaV4ek-23">
          <mxGeometry relative="1" as="geometry" />
        </mxCell>
        <mxCell id="rMBzDeZ3MMQe98OaV4ek-44" style="edgeStyle=orthogonalEdgeStyle;rounded=0;orthogonalLoop=1;jettySize=auto;html=1;exitX=0.75;exitY=1;exitDx=0;exitDy=0;entryX=0.5;entryY=0;entryDx=0;entryDy=0;endArrow=none;endFill=0;" edge="1" parent="1" source="rMBzDeZ3MMQe98OaV4ek-2" target="rMBzDeZ3MMQe98OaV4ek-22">
          <mxGeometry relative="1" as="geometry" />
        </mxCell>
        <mxCell id="rMBzDeZ3MMQe98OaV4ek-2" value="Curso" style="rounded=0;whiteSpace=wrap;html=1;" vertex="1" parent="1">
          <mxGeometry x="606" y="300" width="120" height="60" as="geometry" />
        </mxCell>
        <mxCell id="rMBzDeZ3MMQe98OaV4ek-31" style="edgeStyle=orthogonalEdgeStyle;rounded=0;orthogonalLoop=1;jettySize=auto;html=1;exitX=0.25;exitY=0;exitDx=0;exitDy=0;endArrow=none;endFill=0;" edge="1" parent="1" source="rMBzDeZ3MMQe98OaV4ek-3" target="rMBzDeZ3MMQe98OaV4ek-20">
          <mxGeometry relative="1" as="geometry" />
        </mxCell>
        <mxCell id="rMBzDeZ3MMQe98OaV4ek-32" style="edgeStyle=orthogonalEdgeStyle;rounded=0;orthogonalLoop=1;jettySize=auto;html=1;exitX=0.75;exitY=0;exitDx=0;exitDy=0;entryX=0.286;entryY=1;entryDx=0;entryDy=0;entryPerimeter=0;endArrow=none;endFill=0;" edge="1" parent="1" source="rMBzDeZ3MMQe98OaV4ek-3" target="rMBzDeZ3MMQe98OaV4ek-19">
          <mxGeometry relative="1" as="geometry" />
        </mxCell>
        <mxCell id="rMBzDeZ3MMQe98OaV4ek-33" style="edgeStyle=orthogonalEdgeStyle;rounded=0;orthogonalLoop=1;jettySize=auto;html=1;exitX=1;exitY=0.25;exitDx=0;exitDy=0;entryX=0;entryY=0.5;entryDx=0;entryDy=0;endArrow=none;endFill=0;" edge="1" parent="1" source="rMBzDeZ3MMQe98OaV4ek-3" target="rMBzDeZ3MMQe98OaV4ek-18">
          <mxGeometry relative="1" as="geometry" />
        </mxCell>
        <mxCell id="rMBzDeZ3MMQe98OaV4ek-34" style="edgeStyle=orthogonalEdgeStyle;rounded=0;orthogonalLoop=1;jettySize=auto;html=1;exitX=1;exitY=1;exitDx=0;exitDy=0;entryX=0;entryY=0;entryDx=0;entryDy=0;endArrow=none;endFill=0;" edge="1" parent="1" source="rMBzDeZ3MMQe98OaV4ek-3" target="rMBzDeZ3MMQe98OaV4ek-17">
          <mxGeometry relative="1" as="geometry" />
        </mxCell>
        <mxCell id="rMBzDeZ3MMQe98OaV4ek-35" style="edgeStyle=orthogonalEdgeStyle;rounded=0;orthogonalLoop=1;jettySize=auto;html=1;exitX=0.5;exitY=1;exitDx=0;exitDy=0;entryX=0.5;entryY=0;entryDx=0;entryDy=0;endArrow=none;endFill=0;" edge="1" parent="1" source="rMBzDeZ3MMQe98OaV4ek-3" target="rMBzDeZ3MMQe98OaV4ek-21">
          <mxGeometry relative="1" as="geometry" />
        </mxCell>
        <mxCell id="rMBzDeZ3MMQe98OaV4ek-3" value="Pacote" style="rounded=0;whiteSpace=wrap;html=1;" vertex="1" parent="1">
          <mxGeometry x="-40" y="320" width="120" height="60" as="geometry" />
        </mxCell>
        <mxCell id="rMBzDeZ3MMQe98OaV4ek-36" style="edgeStyle=orthogonalEdgeStyle;rounded=0;orthogonalLoop=1;jettySize=auto;html=1;exitX=0;exitY=0.25;exitDx=0;exitDy=0;endArrow=none;endFill=0;" edge="1" parent="1" source="rMBzDeZ3MMQe98OaV4ek-4" target="rMBzDeZ3MMQe98OaV4ek-16">
          <mxGeometry relative="1" as="geometry" />
        </mxCell>
        <mxCell id="rMBzDeZ3MMQe98OaV4ek-37" style="edgeStyle=orthogonalEdgeStyle;rounded=0;orthogonalLoop=1;jettySize=auto;html=1;exitX=0;exitY=1;exitDx=0;exitDy=0;entryX=1;entryY=0;entryDx=0;entryDy=0;endArrow=none;endFill=0;" edge="1" parent="1" source="rMBzDeZ3MMQe98OaV4ek-4" target="rMBzDeZ3MMQe98OaV4ek-12">
          <mxGeometry relative="1" as="geometry" />
        </mxCell>
        <mxCell id="rMBzDeZ3MMQe98OaV4ek-38" style="edgeStyle=orthogonalEdgeStyle;rounded=0;orthogonalLoop=1;jettySize=auto;html=1;exitX=0.25;exitY=1;exitDx=0;exitDy=0;entryX=0.5;entryY=0;entryDx=0;entryDy=0;endArrow=none;endFill=0;" edge="1" parent="1" source="rMBzDeZ3MMQe98OaV4ek-4" target="rMBzDeZ3MMQe98OaV4ek-11">
          <mxGeometry relative="1" as="geometry" />
        </mxCell>
        <mxCell id="rMBzDeZ3MMQe98OaV4ek-39" style="edgeStyle=orthogonalEdgeStyle;rounded=0;orthogonalLoop=1;jettySize=auto;html=1;exitX=0.75;exitY=1;exitDx=0;exitDy=0;entryX=0.5;entryY=0;entryDx=0;entryDy=0;endArrow=none;endFill=0;" edge="1" parent="1" source="rMBzDeZ3MMQe98OaV4ek-4" target="rMBzDeZ3MMQe98OaV4ek-14">
          <mxGeometry relative="1" as="geometry" />
        </mxCell>
        <mxCell id="rMBzDeZ3MMQe98OaV4ek-40" style="edgeStyle=orthogonalEdgeStyle;rounded=0;orthogonalLoop=1;jettySize=auto;html=1;exitX=1;exitY=1;exitDx=0;exitDy=0;endArrow=none;endFill=0;" edge="1" parent="1" source="rMBzDeZ3MMQe98OaV4ek-4" target="rMBzDeZ3MMQe98OaV4ek-15">
          <mxGeometry relative="1" as="geometry" />
        </mxCell>
        <mxCell id="rMBzDeZ3MMQe98OaV4ek-41" style="edgeStyle=orthogonalEdgeStyle;rounded=0;orthogonalLoop=1;jettySize=auto;html=1;exitX=1;exitY=0.25;exitDx=0;exitDy=0;entryX=0;entryY=1;entryDx=0;entryDy=0;endArrow=none;endFill=0;" edge="1" parent="1" source="rMBzDeZ3MMQe98OaV4ek-4" target="rMBzDeZ3MMQe98OaV4ek-13">
          <mxGeometry relative="1" as="geometry" />
        </mxCell>
        <mxCell id="rMBzDeZ3MMQe98OaV4ek-4" value="Pagamento" style="rounded=0;whiteSpace=wrap;html=1;" vertex="1" parent="1">
          <mxGeometry x="696" y="40" width="120" height="60" as="geometry" />
        </mxCell>
        <mxCell id="rMBzDeZ3MMQe98OaV4ek-5" value="&lt;u&gt;cod_aluno&lt;/u&gt;" style="ellipse;whiteSpace=wrap;html=1;" vertex="1" parent="1">
          <mxGeometry x="50" y="-10" width="70" height="30" as="geometry" />
        </mxCell>
        <mxCell id="rMBzDeZ3MMQe98OaV4ek-6" value="nome" style="ellipse;whiteSpace=wrap;html=1;" vertex="1" parent="1">
          <mxGeometry x="100" y="20" width="70" height="40" as="geometry" />
        </mxCell>
        <mxCell id="rMBzDeZ3MMQe98OaV4ek-7" value="dt_nasc" style="ellipse;whiteSpace=wrap;html=1;" vertex="1" parent="1">
          <mxGeometry x="110" y="70" width="60" height="40" as="geometry" />
        </mxCell>
        <mxCell id="rMBzDeZ3MMQe98OaV4ek-8" value="telefone&amp;nbsp;" style="ellipse;whiteSpace=wrap;html=1;" vertex="1" parent="1">
          <mxGeometry x="-120" y="100" width="70" height="40" as="geometry" />
        </mxCell>
        <mxCell id="rMBzDeZ3MMQe98OaV4ek-9" value="endereco" style="ellipse;whiteSpace=wrap;html=1;" vertex="1" parent="1">
          <mxGeometry x="-45" y="110" width="70" height="40" as="geometry" />
        </mxCell>
        <mxCell id="rMBzDeZ3MMQe98OaV4ek-10" value="cidade" style="ellipse;whiteSpace=wrap;html=1;" vertex="1" parent="1">
          <mxGeometry x="40" y="110" width="70" height="40" as="geometry" />
        </mxCell>
        <mxCell id="rMBzDeZ3MMQe98OaV4ek-11" value="valor&amp;nbsp;" style="ellipse;whiteSpace=wrap;html=1;" vertex="1" parent="1">
          <mxGeometry x="686" y="120" width="50" height="40" as="geometry" />
        </mxCell>
        <mxCell id="rMBzDeZ3MMQe98OaV4ek-12" value="parcela" style="ellipse;whiteSpace=wrap;html=1;" vertex="1" parent="1">
          <mxGeometry x="620" y="85" width="66" height="50" as="geometry" />
        </mxCell>
        <mxCell id="rMBzDeZ3MMQe98OaV4ek-13" value="&lt;u&gt;cod_pagamento&lt;/u&gt;" style="ellipse;whiteSpace=wrap;html=1;" vertex="1" parent="1">
          <mxGeometry x="826" y="10" width="80" height="50" as="geometry" />
        </mxCell>
        <mxCell id="rMBzDeZ3MMQe98OaV4ek-14" value="dt_pagamento" style="ellipse;whiteSpace=wrap;html=1;" vertex="1" parent="1">
          <mxGeometry x="746" y="115" width="80" height="50" as="geometry" />
        </mxCell>
        <mxCell id="rMBzDeZ3MMQe98OaV4ek-15" value="dt_vencimento" style="ellipse;whiteSpace=wrap;html=1;" vertex="1" parent="1">
          <mxGeometry x="836" y="90" width="80" height="60" as="geometry" />
        </mxCell>
        <mxCell id="rMBzDeZ3MMQe98OaV4ek-16" value="cod_aluno" style="ellipse;whiteSpace=wrap;html=1;" vertex="1" parent="1">
          <mxGeometry x="626" y="20" width="60" height="50" as="geometry" />
        </mxCell>
        <mxCell id="rMBzDeZ3MMQe98OaV4ek-17" value="num_aulas" style="ellipse;whiteSpace=wrap;html=1;" vertex="1" parent="1">
          <mxGeometry x="90" y="370" width="70" height="40" as="geometry" />
        </mxCell>
        <mxCell id="rMBzDeZ3MMQe98OaV4ek-18" value="nome" style="ellipse;whiteSpace=wrap;html=1;" vertex="1" parent="1">
          <mxGeometry x="95" y="310" width="60" height="50" as="geometry" />
        </mxCell>
        <mxCell id="rMBzDeZ3MMQe98OaV4ek-19" value="cod_curso" style="ellipse;whiteSpace=wrap;html=1;" vertex="1" parent="1">
          <mxGeometry x="40" y="260" width="70" height="50" as="geometry" />
        </mxCell>
        <mxCell id="rMBzDeZ3MMQe98OaV4ek-20" value="&lt;u&gt;cod_pacote&lt;/u&gt;" style="ellipse;whiteSpace=wrap;html=1;" vertex="1" parent="1">
          <mxGeometry x="-40" y="260" width="70" height="50" as="geometry" />
        </mxCell>
        <mxCell id="rMBzDeZ3MMQe98OaV4ek-21" value="valor" style="ellipse;whiteSpace=wrap;html=1;" vertex="1" parent="1">
          <mxGeometry x="-10" y="390" width="70" height="50" as="geometry" />
        </mxCell>
        <mxCell id="rMBzDeZ3MMQe98OaV4ek-22" value="professor" style="ellipse;whiteSpace=wrap;html=1;" vertex="1" parent="1">
          <mxGeometry x="686" y="370" width="70" height="50" as="geometry" />
        </mxCell>
        <mxCell id="rMBzDeZ3MMQe98OaV4ek-23" value="nome" style="ellipse;whiteSpace=wrap;html=1;" vertex="1" parent="1">
          <mxGeometry x="746" y="340" width="60" height="40" as="geometry" />
        </mxCell>
        <mxCell id="rMBzDeZ3MMQe98OaV4ek-24" value="&lt;u&gt;cod_curso&lt;/u&gt;" style="ellipse;whiteSpace=wrap;html=1;" vertex="1" parent="1">
          <mxGeometry x="736" y="270" width="80" height="60" as="geometry" />
        </mxCell>
        <mxCell id="rMBzDeZ3MMQe98OaV4ek-48" style="edgeStyle=orthogonalEdgeStyle;rounded=0;orthogonalLoop=1;jettySize=auto;html=1;exitX=0;exitY=0.5;exitDx=0;exitDy=0;entryX=0.992;entryY=0.65;entryDx=0;entryDy=0;entryPerimeter=0;endArrow=none;endFill=0;" edge="1" parent="1" source="rMBzDeZ3MMQe98OaV4ek-46" target="rMBzDeZ3MMQe98OaV4ek-1">
          <mxGeometry relative="1" as="geometry" />
        </mxCell>
        <mxCell id="rMBzDeZ3MMQe98OaV4ek-49" style="edgeStyle=orthogonalEdgeStyle;rounded=0;orthogonalLoop=1;jettySize=auto;html=1;exitX=1;exitY=0.5;exitDx=0;exitDy=0;endArrow=none;endFill=0;" edge="1" parent="1" source="rMBzDeZ3MMQe98OaV4ek-46" target="rMBzDeZ3MMQe98OaV4ek-4">
          <mxGeometry relative="1" as="geometry" />
        </mxCell>
        <mxCell id="rMBzDeZ3MMQe98OaV4ek-46" value="Possui" style="shape=rhombus;perimeter=rhombusPerimeter;whiteSpace=wrap;html=1;align=center;" vertex="1" parent="1">
          <mxGeometry x="340" y="40" width="120" height="60" as="geometry" />
        </mxCell>
        <mxCell id="rMBzDeZ3MMQe98OaV4ek-50" value="1 : 1" style="text;html=1;strokeColor=none;fillColor=none;align=center;verticalAlign=middle;whiteSpace=wrap;rounded=0;" vertex="1" parent="1">
          <mxGeometry x="260" y="40" width="40" height="20" as="geometry" />
        </mxCell>
        <mxCell id="rMBzDeZ3MMQe98OaV4ek-51" value="1 : N" style="text;html=1;strokeColor=none;fillColor=none;align=center;verticalAlign=middle;whiteSpace=wrap;rounded=0;" vertex="1" parent="1">
          <mxGeometry x="520" y="40" width="40" height="20" as="geometry" />
        </mxCell>
        <mxCell id="rMBzDeZ3MMQe98OaV4ek-53" style="edgeStyle=orthogonalEdgeStyle;rounded=0;orthogonalLoop=1;jettySize=auto;html=1;exitX=1;exitY=0.5;exitDx=0;exitDy=0;entryX=0.35;entryY=1.033;entryDx=0;entryDy=0;entryPerimeter=0;endArrow=none;endFill=0;" edge="1" parent="1" source="rMBzDeZ3MMQe98OaV4ek-52" target="rMBzDeZ3MMQe98OaV4ek-4">
          <mxGeometry relative="1" as="geometry" />
        </mxCell>
        <mxCell id="rMBzDeZ3MMQe98OaV4ek-54" style="edgeStyle=orthogonalEdgeStyle;rounded=0;orthogonalLoop=1;jettySize=auto;html=1;exitX=0;exitY=0.5;exitDx=0;exitDy=0;entryX=1;entryY=0.75;entryDx=0;entryDy=0;endArrow=none;endFill=0;" edge="1" parent="1" source="rMBzDeZ3MMQe98OaV4ek-52" target="rMBzDeZ3MMQe98OaV4ek-3">
          <mxGeometry relative="1" as="geometry" />
        </mxCell>
        <mxCell id="rMBzDeZ3MMQe98OaV4ek-52" value="Possui" style="shape=rhombus;perimeter=rhombusPerimeter;whiteSpace=wrap;html=1;align=center;" vertex="1" parent="1">
          <mxGeometry x="340" y="200" width="120" height="60" as="geometry" />
        </mxCell>
        <mxCell id="rMBzDeZ3MMQe98OaV4ek-55" value="1 : N" style="text;html=1;strokeColor=none;fillColor=none;align=center;verticalAlign=middle;whiteSpace=wrap;rounded=0;" vertex="1" parent="1">
          <mxGeometry x="580" y="210" width="40" height="20" as="geometry" />
        </mxCell>
        <mxCell id="rMBzDeZ3MMQe98OaV4ek-56" value="1 ; 1" style="text;html=1;strokeColor=none;fillColor=none;align=center;verticalAlign=middle;whiteSpace=wrap;rounded=0;" vertex="1" parent="1">
          <mxGeometry x="210" y="210" width="40" height="20" as="geometry" />
        </mxCell>
        <mxCell id="rMBzDeZ3MMQe98OaV4ek-58" style="edgeStyle=orthogonalEdgeStyle;rounded=0;orthogonalLoop=1;jettySize=auto;html=1;exitX=1;exitY=0.5;exitDx=0;exitDy=0;endArrow=none;endFill=0;" edge="1" parent="1" source="rMBzDeZ3MMQe98OaV4ek-57" target="rMBzDeZ3MMQe98OaV4ek-2">
          <mxGeometry relative="1" as="geometry" />
        </mxCell>
        <mxCell id="rMBzDeZ3MMQe98OaV4ek-59" style="edgeStyle=orthogonalEdgeStyle;rounded=0;orthogonalLoop=1;jettySize=auto;html=1;exitX=0;exitY=0.5;exitDx=0;exitDy=0;entryX=1;entryY=1;entryDx=0;entryDy=0;endArrow=none;endFill=0;" edge="1" parent="1" source="rMBzDeZ3MMQe98OaV4ek-57" target="rMBzDeZ3MMQe98OaV4ek-3">
          <mxGeometry relative="1" as="geometry" />
        </mxCell>
        <mxCell id="rMBzDeZ3MMQe98OaV4ek-57" value="Possui" style="shape=rhombus;perimeter=rhombusPerimeter;whiteSpace=wrap;html=1;align=center;" vertex="1" parent="1">
          <mxGeometry x="340" y="360" width="120" height="60" as="geometry" />
        </mxCell>
        <mxCell id="rMBzDeZ3MMQe98OaV4ek-60" value="1 : N" style="text;html=1;strokeColor=none;fillColor=none;align=center;verticalAlign=middle;whiteSpace=wrap;rounded=0;" vertex="1" parent="1">
          <mxGeometry x="480" y="360" width="40" height="20" as="geometry" />
        </mxCell>
        <mxCell id="rMBzDeZ3MMQe98OaV4ek-62" value="1 : 1" style="text;html=1;strokeColor=none;fillColor=none;align=center;verticalAlign=middle;whiteSpace=wrap;rounded=0;" vertex="1" parent="1">
          <mxGeometry x="250" y="370" width="40" height="20" as="geometry" />
        </mxCell>
      </root>
    </mxGraphModel>
  </diagram>
</mxfile>
